<svg xmlns="http://www.w3.org/2000/svg" xmlns:xlink="http://www.w3.org/1999/xlink" fill="none" version="1.1" width="157.00390625" height="142" viewBox="0 0 157.00390625 142"><defs><linearGradient x1="0.6136890053749084" y1="-0.0946420282125473" x2="0.28541824023208956" y2="0.6764067331335524" id="master_svg0_2_018934"><stop offset="6.428571790456772%" stop-color="#0E2726" stop-opacity="1"/><stop offset="98.57142567634583%" stop-color="#13372D" stop-opacity="1"/></linearGradient><radialGradient cx="0" cy="0" r="1" gradientUnits="userSpaceOnUse" id="master_svg1_2_018935" gradientTransform="translate(176.05962898123835 0) rotate(159.235053703165) scale(99.51749023295206 110.03266016762308)"><stop offset="20.000003278255463%" stop-color="#3EAF80" stop-opacity="1"/><stop offset="51.320260763168335%" stop-color="#43BF8B" stop-opacity="0.5902023315429688"/><stop offset="96.42857909202576%" stop-color="#4AD59A" stop-opacity="0"/><stop offset="99.7096836566925%" stop-color="#4A96D5" stop-opacity="0"/></radialGradient><linearGradient x1="0.6136890053749084" y1="-0.0946420282125473" x2="0.29320798838797524" y2="0.6802616031012837" id="master_svg2_83_2269"><stop offset="6.428571790456772%" stop-color="#0E2726" stop-opacity="1"/><stop offset="98.57142567634583%" stop-color="#13372D" stop-opacity="1"/></linearGradient><radialGradient cx="0" cy="0" r="1" gradientUnits="userSpaceOnUse" id="master_svg3_83_2270" gradientTransform="translate(128.90862202644348 19.04545596241951) rotate(158.84556536199563) scale(56.59990952589055 61.679388585906366)"><stop offset="20.000003278255463%" stop-color="#3EAF80" stop-opacity="1"/><stop offset="51.320260763168335%" stop-color="#43BF8B" stop-opacity="0.5902023315429688"/><stop offset="96.42857909202576%" stop-color="#4AD59A" stop-opacity="0"/><stop offset="99.7096836566925%" stop-color="#4A96D5" stop-opacity="0"/></radialGradient></defs><g><g><path d="M21.8578,22.7768L21.8578,88.5715C21.8578,102.642,44.3496,114.929,65.2049,123.658C68.961,125.228,70.7001,131.344,70.4223,142C62.5158,139.994,57.399,138.555,55.0722,137.683C20.2636,124.639,0,119.03,0,88.5715L0,11.8103C0,5.71449,4.80472,0.750571,10.783,0.669429L70.4223,0C66.4831,10.1571,62.1776,15.7113,57.5057,16.6627C52.8359,17.6141,40.9519,19.6508,21.8578,22.7768ZM135.146,22.7768C116.052,19.6528,104.168,17.6141,99.4982,16.6627C94.8284,15.7113,90.5208,10.1571,86.5816,0.00000270843L146.221,0.669431C152.199,0.750571,157.004,5.71449,157.004,11.8103L157.004,88.5715C157.004,119.03,136.74,124.639,101.932,137.683C99.6049,138.555,94.4882,139.996,86.5816,142C86.3039,131.344,88.043,125.228,91.799,123.658C112.654,114.929,135.146,102.642,135.146,88.5715L135.146,22.7768Z" fill="url(#master_svg0_2_018934)" fill-opacity="1"/><path d="M21.8578,22.7768L21.8578,88.5715C21.8578,102.642,44.3496,114.929,65.2049,123.658C68.961,125.228,70.7001,131.344,70.4223,142C62.5158,139.994,57.399,138.555,55.0722,137.683C20.2636,124.639,0,119.03,0,88.5715L0,11.8103C0,5.71449,4.80472,0.750571,10.783,0.669429L70.4223,0C66.4831,10.1571,62.1776,15.7113,57.5057,16.6627C52.8359,17.6141,40.9519,19.6508,21.8578,22.7768ZM135.146,22.7768C116.052,19.6528,104.168,17.6141,99.4982,16.6627C94.8284,15.7113,90.5208,10.1571,86.5816,0.00000270843L146.221,0.669431C152.199,0.750571,157.004,5.71449,157.004,11.8103L157.004,88.5715C157.004,119.03,136.74,124.639,101.932,137.683C99.6049,138.555,94.4882,139.996,86.5816,142C86.3039,131.344,88.043,125.228,91.799,123.658C112.654,114.929,135.146,102.642,135.146,88.5715L135.146,22.7768Z" fill="url(#master_svg1_2_018935)" fill-opacity="1"/></g><g><g><path d="M79.8172,20.41739L119.7916,93.7823C120.3363,94.7819,119.6128,96,118.4745,96L38.52552,96C37.38723,96,36.66373,94.7819,37.20835,93.7823L77.1828,20.41739C77.7512,19.3743,79.2488,19.3743,79.8172,20.41739" fill="url(#master_svg2_83_2269)" fill-opacity="1"/><path d="M79.8172,20.41739L119.7916,93.7823C120.3363,94.7819,119.6128,96,118.4745,96L38.52552,96C37.38723,96,36.66373,94.7819,37.20835,93.7823L77.1828,20.41739C77.7512,19.3743,79.2488,19.3743,79.8172,20.41739" fill="url(#master_svg3_83_2270)" fill-opacity="1"/></g><g><path d="M75.68854999999999,47.83468C77.0603,45.47583,77.6371,44.48389,78.5,44.48389C79.3629,44.48389,79.9397,45.47583,81.3114,47.83468L82.4185,49.73838C82.71170000000001,50.2426,82.8109,50.41319,82.9488,50.55115C83.0868,50.689099999999996,83.2574,50.78831,83.7616,51.08152L85.6653,52.18855C88.02420000000001,53.5603,89.0161,54.137100000000004,89.0161,55C89.0161,55.862899999999996,88.02420000000001,56.4397,85.6653,57.8114L83.7616,58.9185C83.2574,59.2117,83.0868,59.310900000000004,82.9489,59.4488C82.8109,59.5868,82.71170000000001,59.757400000000004,82.4185,60.2616L81.3114,62.1653C79.9397,64.52420000000001,79.3629,65.5161,78.5,65.5161C77.6371,65.5161,77.0603,64.52420000000001,75.68854999999999,62.1653L74.58152,60.2616C74.28831,59.757400000000004,74.18911,59.5868,74.05115,59.448899999999995C73.91319,59.310900000000004,73.7426,59.2117,73.23838,58.9185L71.33468,57.8114C68.97583,56.4397,67.98389,55.862899999999996,67.98389,55C67.98389,54.137100000000004,68.97583,53.5603,71.33468,52.18855L73.23838,51.08152C73.7426,50.78831,73.91319,50.689099999999996,74.05115,50.55115C74.1891,50.41319,74.28831,50.2426,74.58152,49.73838L75.68854999999999,47.83468Z" fill="#FAFFFD" fill-opacity="1"/></g><g><path d="M58.000137329,96L99,96C97.3415,95.7927,96.4904,95.6848,95.73519999999999,95.47710000000001C93.0276,94.7323,90.7038,92.9764,89.248,90.575C88.8419,89.9053,88.5057,89.116,87.8534,87.5772L81.9735,73.70618C81.8247,73.35534,81.7475,73.17439,81.654,73.02606C81.3183,72.493739,80.769,72.129998,80.14789999999999,72.0286895C79.9749,72.000460206,79.7781,72,79.3971,72L77.6033,72C77.2223,72,77.0255,72.000460278,76.85249999999999,72.0286887C76.23140000000001,72.129995,75.68209999999999,72.493726,75.3464,73.02604C75.2529,73.17436000000001,75.1757,73.35531,75.0269,73.70614L69.1466,87.5773C68.4943,89.1161,68.1581,89.9054,67.75205,90.57509999999999C66.29619,92.9765,63.97249,94.7323,61.26485,95.47710000000001C60.50965,95.6848,59.6586,95.7927,58.000137329,96Z" fill="#FAFFFD" fill-opacity="1"/></g></g></g></svg>